<?xml version="1.0" encoding="UTF-8" standalone="no"?>
<!-- Created with Inkscape (http://www.inkscape.org/) -->

<svg
   width="512"
   height="512"
   viewBox="0 0 512 512"
   version="1.1"
   id="svg1"
   sodipodi:docname="ddc-icon.svg"
   inkscape:version="1.3.2 (091e20ef0f, 2023-11-25, custom)"
   xmlns:inkscape="http://www.inkscape.org/namespaces/inkscape"
   xmlns:sodipodi="http://sodipodi.sourceforge.net/DTD/sodipodi-0.dtd"
   xmlns:xlink="http://www.w3.org/1999/xlink"
   xmlns="http://www.w3.org/2000/svg"
   xmlns:svg="http://www.w3.org/2000/svg">
  <sodipodi:namedview
     id="namedview1"
     pagecolor="#ffffff"
     bordercolor="#666666"
     borderopacity="1.0"
     inkscape:showpageshadow="2"
     inkscape:pageopacity="0.0"
     inkscape:pagecheckerboard="0"
     inkscape:deskcolor="#d1d1d1"
     inkscape:document-units="px"
     showguides="true"
     inkscape:zoom="0.72320884"
     inkscape:cx="311.11345"
     inkscape:cy="176.29762"
     inkscape:window-width="1920"
     inkscape:window-height="1003"
     inkscape:window-x="0"
     inkscape:window-y="40"
     inkscape:window-maximized="1"
     inkscape:current-layer="layer1"
     showgrid="false">
    <sodipodi:guide
       position="256.33552,387.85845"
       orientation="1,0"
       id="guide1"
       inkscape:locked="false" />
    <sodipodi:guide
       position="-64.419397,255.66448"
       orientation="0,-1"
       id="guide2"
       inkscape:locked="false" />
  </sodipodi:namedview>
  <defs
     id="defs1">
    <pattern
       inkscape:collect="always"
       xlink:href="#Strips1_1.5"
       preserveAspectRatio="xMidYMid"
       id="pattern15"
       patternTransform="matrix(1.492447,1.492447,-1.492447,1.492447,-16.002909,-18.726173)"
       x="0"
       y="0" />
    <pattern
       inkscape:collect="always"
       patternUnits="userSpaceOnUse"
       width="2.5"
       height="1"
       patternTransform="translate(0,0) scale(2,2)"
       preserveAspectRatio="xMidYMid"
       id="Strips1_1.5"
       style="fill:#000000"
       inkscape:stockid="Stripes 02 (2:3)"
       inkscape:isstock="true"
       inkscape:label="Stripes 02 (2:3)">
      <rect
         style="stroke:none"
         x="0"
         y="-0.5"
         width="1"
         height="2"
         id="rect140" />
    </pattern>
    <linearGradient
       id="swatch9"
       inkscape:swatch="solid">
      <stop
         style="stop-color:#b3b3b3;stop-opacity:1;"
         offset="0"
         id="stop9" />
    </linearGradient>
    <rect
       x="189.61234"
       y="190.03561"
       width="217.74571"
       height="255.35549"
       id="rect3" />
  </defs>
  <g
     inkscape:label="Layer 1"
     inkscape:groupmode="layer"
     id="layer1">
    <circle
       style="opacity:0.512994;fill:url(#pattern15);fill-opacity:1;stroke:#3c3c3c;stroke-width:7.38724;stroke-dasharray:none;stroke-opacity:1"
       id="path2"
       cx="208.87836"
       cy="211.74284"
       r="203.84061" />
    <path
       style="opacity:1;fill:#3b28b1;fill-opacity:1;stroke:#000000;stroke-width:0;stroke-dasharray:none"
       d="M 246.47744,402.86803 C 179.15034,382.15291 128.56166,329.50321 110.575,261.42886 l -2.51254,-9.50919 2.10481,-7.42503 C 128.24662,180.7171 181.41998,127.40349 245.47043,108.83462 l 7.72585,-2.2398 6.52686,1.70954 c 15.54866,4.07257 34.48295,11.92506 48.48217,20.10666 42.64996,24.92603 74.22177,63.75118 89.80848,110.44115 5.95966,17.85217 5.97222,18.63971 0.55806,35.01797 -18.16281,54.94397 -58.24714,98.76156 -111.08898,121.43525 -7.90087,3.39015 -29.84906,10.90177 -31.03036,10.61994 -0.0941,-0.0225 -4.58286,-1.39824 -9.97507,-3.0573 z"
       id="path13" />
    <circle
       style="fill:none;stroke:#000000;stroke-width:7.38724;stroke-dasharray:none"
       id="path2-6"
       cx="303.84033"
       cy="211.58847"
       r="203.84061" />
    <circle
       style="fill:none;stroke:#000000;stroke-width:7.38724;stroke-dasharray:none"
       id="path2-61"
       cx="303.88339"
       cy="300.41107"
       r="203.84061" />
    <circle
       style="fill:none;stroke:#000000;stroke-width:7.38724;stroke-dasharray:none"
       id="path2-2"
       cx="208.42688"
       cy="301.33688"
       r="203.84061" />
    <path
       style="fill:#3b28b1;fill-opacity:1;stroke:#000000;stroke-width:0;stroke-dasharray:none"
       d="m 286.99389,410.56804 c -1.46397,-0.17261 -4.85771,-0.5568 -7.54165,-0.85374 l -4.87989,-0.53993 7.09802,-2.57538 c 10.73069,-3.89343 30.8038,-14.14584 41.25725,-21.07225 23.89891,-15.83534 43.2284,-35.05867 59.02279,-58.69866 7.6827,-11.49893 17.53266,-30.61728 21.35344,-41.44609 1.42005,-4.02464 2.82216,-7.31856 3.11582,-7.31983 0.75028,-0.003 1.67257,12.94901 1.67889,23.57761 0.0164,27.43053 -6.88901,58.69398 -18.34219,83.04315 -4.87542,10.36503 -4.57854,10.15303 -22.69227,16.20477 -13.41703,4.48258 -29.46634,7.9564 -43.12142,9.33345 -8.52401,0.85963 -30.82454,1.06899 -36.94879,0.3469 z"
       id="path6" />
    <path
       style="fill:#3b28b1;fill-opacity:1;stroke:#000000;stroke-width:0;stroke-dasharray:none"
       d="M 188.50884,500.1937 C 171.12769,498.34618 149.37589,492.83332 132.82169,486.08015 74.855433,462.43325 30.267125,411.29438 15.009031,350.95939 10.327583,332.44756 9.283148,323.18483 9.290209,300.24117 c 0.0035,-11.46774 0.332809,-21.64896 0.731732,-22.62495 0.578078,-1.41427 1.489287,0.20673 4.488733,7.98528 15.768143,40.892 43.274525,75.29567 79.460939,99.38594 4.672227,3.11042 12.191197,7.60769 16.708837,9.99391 8.20854,4.33576 8.21696,4.34375 12.91688,12.24882 23.91531,40.22458 61.62514,71.56034 106.03929,88.11558 9.10949,3.39554 9.15796,3.42905 5.76715,3.98758 -4.18792,0.68983 -41.97688,1.38312 -46.89493,0.86037 z"
       id="path8" />
    <path
       style="fill:#3b28b1;fill-opacity:1;stroke:#000000;stroke-width:0;stroke-dasharray:none"
       d="M 498.66164,233.47753 C 483.31321,185.70069 446.4152,142.19492 399.7666,116.87221 c -7.8244,-4.2474 -7.93748,-4.35772 -12.89126,-12.57624 C 371.1101,78.140801 348.60875,54.90807 322.04036,37.35361 311.65611,30.492447 291.6229,20.429144 280.78311,16.628817 l -7.09801,-2.4885 4.43625,-0.782796 c 2.43995,-0.430536 13.61933,-0.830583 24.84308,-0.888993 22.94306,-0.119395 31.57872,0.899778 51.54081,6.082808 61.21929,15.895201 111.58528,60.630625 135.18326,120.070724 10.61772,26.7446 15.3977,57.88289 13.30091,86.64626 -0.5336,7.31983 -1.26053,13.6092 -1.6154,13.97635 -0.35486,0.36716 -1.57542,-2.22805 -2.71237,-5.76714 z"
       id="path9" />
    <text
       xml:space="preserve"
       id="text3"
       style="font-style:normal;font-weight:normal;font-size:200px;line-height:1.25;font-family:sans-serif;letter-spacing:0px;word-spacing:0px;white-space:pre;shape-inside:url(#rect3);shape-padding:3.75066;display:inline;fill:#000000;fill-opacity:1;stroke:none"
       transform="matrix(1.4341239,0,0,1.4341239,-133.90322,-179.52616)"><tspan
         x="193.36328"
         y="375.76019"
         id="tspan4"><tspan
           style="fill:#ffd01d"
           id="tspan3">𝔇</tspan></tspan></text>
    <path
       style="fill:#3b28b1;stroke:#999999;stroke-width:0"
       d="m 282.76756,498.6863 -5.5309,-0.97217 5.5309,-1.8871 c 25.26535,-8.62037 60.0787,-32.55858 80.60994,-55.42865 8.08303,-9.00382 21.63668,-27.65461 25.27422,-34.77913 2.0403,-3.99614 5.10102,-6.39235 14.66109,-11.47803 36.07334,-19.18993 67.45313,-51.45998 86.11554,-88.55867 3.82567,-7.605 8.12547,-17.24951 9.5551,-21.43226 l 2.59932,-7.605 1.06499,6.85573 c 1.60173,10.31098 -0.31272,42.64716 -3.36665,56.86448 -5.90281,27.48006 -17.30708,53.73036 -32.84483,75.60201 -10.33111,14.54255 -32.5694,36.78084 -47.11195,47.11195 -21.83522,15.51187 -47.98292,26.88066 -75.60202,32.8711 -13.38891,2.90399 -50.69287,4.63945 -60.95475,2.83574 z"
       id="path1" />
  </g>
</svg>
