<?xml version="1.0" standalone="no"?>
<!DOCTYPE svg PUBLIC "-//W3C//DTD SVG 20010904//EN"
 "http://www.w3.org/TR/2001/REC-SVG-20010904/DTD/svg10.dtd">
<svg version="1.0" xmlns="http://www.w3.org/2000/svg"
 width="700.000000pt" height="700.000000pt" viewBox="0 0 700.000000 700.000000"
 preserveAspectRatio="xMidYMid meet">
<metadata>
Created by potrace 1.14, written by Peter Selinger 2001-2017
</metadata>
<g transform="translate(0.000000,700.000000) scale(0.100000,-0.100000)"
fill="#000000" stroke="none">
<path d="M3814 6925 c-148 -19 -390 -68 -486 -100 -42 -14 -84 -22 -93 -19 -9
4 -25 -2 -38 -14 -12 -11 -47 -30 -77 -42 l-55 -21 45 45 c66 68 25 56 -45
-14 -39 -38 -81 -68 -120 -85 l-60 -26 90 90 c49 50 83 91 75 91 -8 0 -64 -49
-125 -109 -77 -77 -134 -124 -190 -156 l-80 -47 155 156 c85 85 151 159 147
163 -4 4 -96 -81 -205 -189 -108 -107 -242 -229 -297 -270 -55 -41 -143 -112
-195 -158 -52 -45 62 75 255 269 192 193 345 351 340 351 -6 0 -372 -363 -815
-806 -558 -559 -849 -843 -950 -927 -184 -153 -314 -284 -467 -467 -67 -80
-207 -230 -312 -335 -105 -104 -191 -194 -191 -200 0 -5 81 71 181 170 100 99
180 175 178 170 -2 -6 -24 -44 -49 -85 -30 -50 -88 -120 -177 -211 -73 -74
-130 -139 -126 -143 4 -3 52 37 106 91 l99 98 -35 -70 c-23 -46 -58 -92 -101
-135 -36 -35 -66 -71 -66 -79 0 -9 24 8 55 39 30 30 55 52 55 48 0 -20 -52
-117 -74 -137 -28 -27 -38 -64 -11 -41 20 17 19 2 -4 -57 -95 -242 -155 -720
-132 -1052 48 -714 331 -1342 826 -1836 462 -461 1046 -742 1700 -816 137 -16
477 -16 610 -1 55 7 162 24 237 38 l137 26 123 -21 c217 -37 320 -44 573 -38
231 5 314 14 506 52 391 78 793 259 1124 508 490 366 856 895 1025 1480 81
280 105 461 104 792 0 238 -3 287 -24 415 -30 179 -30 200 0 380 21 127 24
178 24 415 0 310 -15 443 -83 709 -202 789 -743 1462 -1467 1825 -290 144
-528 220 -874 277 -134 23 -596 28 -746 9z m601 -94 c33 -3 -84 -6 -260 -6
-176 0 -295 3 -265 6 75 8 451 8 525 0z m-622 -18 c-7 -2 -19 -2 -25 0 -7 3
-2 5 12 5 14 0 19 -2 13 -5z m750 0 c-7 -2 -21 -2 -30 0 -10 3 -4 5 12 5 17 0
24 -2 18 -5z m-705 -39 c223 -84 512 -238 687 -369 298 -222 573 -518 749
-805 32 -52 68 -106 80 -119 11 -13 17 -22 11 -19 -5 2 -32 14 -60 27 -27 13
-72 32 -100 42 -37 13 -49 22 -47 35 3 15 1 16 -11 6 -14 -12 -67 -7 -67 6 0
3 10 16 22 29 32 34 13 41 -21 9 -24 -23 -35 -27 -57 -22 l-27 7 43 44 c24 25
41 48 37 52 -4 4 -29 -14 -55 -40 -37 -36 -52 -45 -70 -41 -12 4 -22 9 -22 12
0 4 25 32 56 63 31 31 52 59 47 62 -5 3 -38 -22 -72 -57 -50 -50 -67 -62 -87
-58 -13 2 -24 7 -24 11 0 4 34 40 75 81 40 40 71 78 68 83 -3 5 -42 -27 -87
-72 -68 -68 -87 -81 -114 -81 -17 0 -32 3 -32 8 0 4 43 50 95 102 52 52 92 96
89 99 -2 3 -51 -41 -108 -98 -92 -91 -105 -102 -129 -96 -15 4 -27 10 -27 14
0 3 49 55 109 115 61 61 107 114 104 119 -3 5 -60 -45 -127 -112 -114 -113
-148 -136 -170 -114 -4 4 53 67 126 140 72 73 129 136 125 140 -4 4 -72 -57
-151 -136 -131 -131 -145 -142 -170 -135 -27 7 -24 10 125 160 84 84 150 157
146 161 -4 4 -80 -66 -170 -154 -148 -147 -164 -161 -191 -156 -27 6 -23 11
145 179 95 95 170 177 166 181 -4 4 -90 -75 -190 -175 -142 -142 -188 -182
-208 -182 -14 0 -29 3 -33 7 -4 4 82 96 191 205 109 109 193 198 188 198 -6 0
-100 -90 -210 -200 -193 -193 -201 -200 -240 -200 l-40 0 220 220 c120 120
216 223 212 227 -4 4 -110 -95 -235 -220 -209 -209 -230 -227 -262 -227 -34 0
-30 5 209 244 134 134 239 246 234 249 -5 3 -121 -106 -259 -244 -230 -230
-251 -249 -284 -249 -34 0 -29 6 230 265 145 145 261 268 257 272 -4 4 -133
-118 -285 -270 -256 -256 -280 -277 -312 -277 -34 0 -26 9 260 295 162 162
288 295 280 295 -8 0 -150 -135 -315 -300 -293 -292 -302 -300 -340 -300 l-40
0 318 318 c174 174 317 322 317 327 0 5 -150 -140 -332 -322 -320 -319 -335
-333 -378 -339 l-45 -6 350 350 c192 193 346 355 342 359 -4 4 -173 -158 -375
-360 -254 -254 -374 -367 -389 -367 -12 0 -30 -3 -40 -6 -10 -4 154 166 365
378 210 211 379 387 375 391 -4 4 -186 -171 -404 -389 -374 -373 -398 -396
-425 -390 -27 7 -12 23 375 410 222 222 399 406 394 409 -5 3 -191 -176 -414
-399 -336 -336 -409 -404 -431 -404 -16 0 -28 3 -28 7 0 5 183 191 407 415
224 224 404 411 400 415 -4 4 -196 -181 -426 -411 -414 -414 -419 -418 -451
-411 l-33 7 422 422 c231 231 421 425 421 431 0 5 -195 -184 -432 -422 -424
-422 -434 -431 -467 -426 l-33 6 438 438 c242 242 432 439 424 439 -8 0 -211
-196 -450 -435 -408 -408 -437 -435 -470 -435 -34 0 -20 15 415 450 247 248
443 450 435 450 -8 0 -218 -202 -465 -450 -375 -376 -454 -450 -477 -450 -16
0 -28 3 -28 7 0 5 206 214 457 465 252 252 451 458 443 458 -8 0 -222 -207
-475 -460 -431 -431 -462 -460 -495 -460 -34 0 -19 16 435 470 258 258 466
473 462 477 -4 4 -223 -208 -485 -470 -470 -470 -478 -477 -517 -477 l-40 0
483 483 c265 265 482 487 482 492 0 5 -222 -212 -493 -483 -480 -480 -495
-494 -538 -499 l-44 -5 505 506 c278 278 498 506 490 506 -8 0 -242 -227 -520
-504 -462 -461 -508 -504 -545 -511 -38 -6 -15 19 480 514 286 287 513 521
505 521 -8 0 -249 -234 -535 -520 -480 -480 -524 -521 -560 -526 -38 -6 -16
17 499 533 l538 540 102 21 c55 11 107 20 114 21 7 1 57 -15 110 -35z m765 29
c-7 -2 -19 -2 -25 0 -7 3 -2 5 12 5 14 0 19 -2 13 -5z m60 -10 c-7 -2 -19 -2
-25 0 -7 3 -2 5 12 5 14 0 19 -2 13 -5z m221 -49 c130 -36 330 -108 383 -139
35 -20 24 -17 -114 39 -104 41 -277 95 -418 130 -39 10 -46 14 -20 10 22 -3
98 -21 169 -40z m-1954 -528 c-490 -490 -538 -535 -575 -541 -38 -7 -15 18
485 520 289 290 539 533 555 541 93 42 52 -3 -465 -520z m-125 -27 c-286 -286
-527 -524 -535 -528 -8 -5 -33 -11 -55 -15 -38 -7 -14 19 470 504 402 404 521
517 560 536 28 13 57 24 65 24 8 0 -219 -234 -505 -521z m-150 -49 c-424 -424
-516 -512 -548 -521 -21 -5 -46 -13 -55 -16 -9 -3 208 220 483 497 394 396
511 507 550 526 28 13 57 24 65 24 8 0 -215 -230 -495 -510z m2728 414 c421
-212 796 -548 1060 -949 71 -108 247 -442 247 -469 0 -6 -38 66 -84 159 -143
289 -281 486 -496 708 -203 210 -441 389 -700 526 -125 66 -144 83 -27 25z
m-2896 -472 c-462 -462 -502 -500 -550 -515 -50 -16 -42 -7 428 463 407 407
490 485 545 515 36 19 67 35 70 35 3 0 -219 -224 -493 -498z m-189 -89 c-257
-257 -470 -465 -473 -462 -3 3 13 35 36 70 27 42 156 179 377 402 269 270 355
350 426 398 49 32 92 59 95 59 3 0 -204 -210 -461 -467z m132 234 c0 -1 -91
-92 -202 -202 -206 -204 -215 -210 -92 -71 71 81 294 288 294 273z m-408 -249
c-49 -57 -123 -148 -164 -203 -103 -136 -382 -411 -473 -466 -38 -23 -81 -49
-95 -57 -14 -8 164 174 395 406 231 232 421 422 423 422 1 0 -37 -46 -86 -102z
m1988 -413 c-50 -50 -69 -64 -85 -59 -11 4 -22 8 -25 11 -3 2 21 29 52 59 45
43 63 54 89 54 l33 0 -64 -65z m160 57 c0 -4 -34 -41 -75 -82 -71 -71 -75 -73
-101 -61 l-27 12 69 70 c57 57 74 69 101 69 18 0 33 -3 33 -8z m100 0 c0 -4
-40 -47 -88 -95 -79 -78 -92 -87 -115 -82 -15 4 -27 10 -27 14 0 4 38 44 84
89 68 67 89 82 115 82 17 0 31 -3 31 -8z m-1440 -10 c0 -4 -317 -324 -705
-712 -679 -679 -705 -704 -705 -670 0 33 38 74 678 713 566 566 682 677 705
677 15 0 27 -3 27 -8z m100 0 c0 -14 -365 -368 -420 -407 -30 -22 -89 -66
-130 -98 -52 -42 13 28 210 227 234 234 291 286 313 286 15 0 27 -4 27 -8z
m990 -37 c-46 -47 -55 -51 -80 -35 -12 8 -9 15 20 45 26 27 42 35 69 35 l35 0
-44 -45z m346 -64 c-101 -102 -111 -108 -133 -98 -23 10 -22 13 74 109 86 87
102 98 133 98 l35 0 -109 -109z m179 103 c13 -5 -9 -33 -101 -125 -65 -66
-123 -119 -129 -119 -5 0 -17 5 -25 10 -12 8 8 32 100 125 63 63 120 115 127
115 6 0 19 -3 28 -6z m-1825 -12 c0 -4 -265 -273 -590 -597 l-590 -590 0 40
c0 39 8 47 552 592 452 452 557 553 582 556 17 2 34 5 39 5 4 1 7 -1 7 -6z
m110 5 c0 -1 -292 -295 -650 -652 l-650 -650 0 40 c0 39 8 47 612 652 593 593
614 613 650 613 21 0 38 -1 38 -3z m190 -110 c-80 -77 -136 -122 -180 -146
l-65 -33 145 146 c132 133 148 146 180 146 l35 0 -115 -113z m193 104 c16 -6
12 -13 -31 -53 -50 -47 -75 -63 -147 -92 -38 -16 -36 -13 45 69 83 83 96 91
133 76z m715 -17 c-21 -22 -32 -25 -55 -19 l-28 7 24 19 c13 10 37 19 54 19
l32 0 -27 -26z m705 18 c14 -6 -8 -33 -117 -141 -125 -125 -135 -132 -155
-120 -20 13 -16 19 106 141 70 71 132 128 138 127 5 0 18 -4 28 -7z m-2805
-24 c-8 -13 -27 -45 -43 -71 -22 -38 -40 -54 -89 -78 l-61 -31 100 101 c55 56
101 101 103 101 3 0 -2 -10 -10 -22z m1477 12 c17 -7 11 -12 -38 -34 -77 -35
-88 -33 -47 9 35 36 49 40 85 25z m525 0 c0 -5 -5 -10 -11 -10 -5 0 -7 5 -4
10 3 6 8 10 11 10 2 0 4 -4 4 -10z m-1750 -525 c-288 -288 -525 -523 -527
-522 -1 1 2 20 7 42 8 34 70 101 492 522 452 452 486 483 518 483 34 0 15 -20
-490 -525z m2660 517 c0 -4 -65 -72 -144 -151 -131 -130 -145 -142 -165 -132
-11 7 -21 15 -21 19 0 4 60 66 132 139 116 116 137 133 165 133 18 0 33 -3 33
-8z m-2700 -457 c-250 -250 -456 -453 -458 -451 -2 2 0 19 3 38 6 29 75 103
414 442 404 404 420 418 486 425 5 1 -195 -204 -445 -454z m2768 448 c22 -5
10 -20 -134 -164 -88 -88 -161 -159 -164 -159 -3 0 -14 7 -25 16 -18 14 -12
21 130 164 82 83 154 150 160 150 5 0 21 -3 33 -7z m89 -21 c8 -5 -42 -63
-156 -176 -158 -158 -169 -167 -190 -155 -20 13 -14 20 141 176 90 90 170 163
178 163 8 0 20 -4 27 -8z m-2907 -377 c-206 -206 -376 -373 -378 -371 -2 2 1
21 7 42 9 32 68 96 334 362 306 306 343 338 397 341 8 1 -154 -168 -360 -374z
m2987 357 c8 -5 -46 -66 -166 -186 -167 -167 -180 -177 -201 -166 -22 12 -16
19 151 186 96 96 181 174 189 174 8 0 20 -4 27 -8z m-3032 -302 c-160 -160
-291 -286 -293 -281 -2 5 6 31 18 58 16 38 69 97 238 266 183 183 224 219 262
231 25 8 49 14 55 15 5 1 -121 -130 -280 -289z m3103 283 c22 -5 6 -24 -164
-194 -104 -104 -194 -189 -199 -189 -6 0 -16 5 -23 12 -10 10 27 51 170 195
101 101 185 183 188 183 3 0 16 -3 28 -7z m-1321 -9 c-3 -3 -12 -4 -19 -1 -8
3 -5 6 6 6 11 1 17 -2 13 -5z m1410 -22 c8 -5 -53 -73 -186 -206 -182 -182
-200 -197 -220 -187 -11 7 -21 15 -21 19 0 4 84 91 187 194 182 182 207 201
240 180z m-3237 -197 c-102 -102 -186 -181 -188 -177 -1 5 7 31 18 58 42 100
270 303 340 304 8 0 -68 -83 -170 -185z m1985 165 c3 -5 -4 -6 -15 -3 -11 3
-22 9 -25 13 -3 5 4 6 15 3 11 -3 22 -9 25 -13z m1335 4 c2 -3 -90 -99 -205
-214 -177 -177 -211 -207 -227 -199 -10 5 -18 15 -18 22 0 6 89 101 198 210
174 175 200 197 222 192 14 -4 27 -9 30 -11z m-1275 -24 c13 -6 15 -9 5 -9 -8
0 -22 4 -30 9 -18 12 -2 12 25 0z m1335 0 c12 -8 -29 -54 -205 -229 -208 -210
-220 -220 -238 -204 -17 16 -8 27 195 230 117 117 217 213 223 213 5 0 17 -5
25 -10z m-3370 -23 c0 -1 -30 -32 -66 -67 l-66 -65 25 50 c17 34 36 56 59 67
32 16 48 21 48 15z m2110 -7 c8 -5 11 -10 5 -10 -5 0 -17 5 -25 10 -8 5 -10
10 -5 10 6 0 17 -5 25 -10z m1330 0 c12 -8 -31 -55 -212 -237 -217 -217 -229
-227 -245 -210 -17 16 -7 28 202 237 121 121 224 220 230 220 5 0 17 -5 25
-10z m314 -163 c516 -310 917 -784 1139 -1347 44 -112 99 -289 112 -360 8 -43
-17 -145 -75 -313 -214 -620 -636 -1135 -1208 -1474 -51 -30 -95 -53 -97 -51
-3 2 18 59 45 126 140 345 203 674 203 1062 0 297 -41 588 -114 817 l-30 93
20 27 c29 36 26 51 -4 23 l-24 -23 -12 27 c-12 24 -10 30 24 64 49 50 48 67
-1 19 l-38 -38 -13 27 c-11 26 -9 30 43 83 31 31 56 63 56 71 0 8 -27 -12 -59
-44 -58 -57 -59 -58 -71 -36 -11 21 -6 28 59 94 39 39 71 78 71 86 0 8 -33
-19 -74 -59 -72 -72 -74 -73 -86 -51 -11 21 -6 29 69 104 45 45 81 88 81 96 0
8 -38 -24 -85 -70 -69 -69 -87 -82 -95 -70 -5 8 -10 20 -10 25 0 6 43 53 95
105 52 52 95 101 95 110 0 8 -45 -30 -101 -85 -95 -95 -101 -99 -115 -81 -7
11 -14 22 -14 26 0 3 50 55 110 115 61 60 110 114 110 120 0 5 -51 -42 -114
-104 l-115 -115 -12 28 c-12 26 -10 30 104 144 64 65 117 124 117 132 0 8 -56
-41 -124 -109 -120 -119 -124 -123 -136 -101 -11 21 -3 31 119 154 72 72 131
138 131 146 0 8 -62 -47 -138 -123 -132 -132 -138 -136 -151 -116 -12 21 -4
30 128 163 78 78 141 148 141 156 0 8 -65 -50 -145 -130 -137 -137 -146 -144
-162 -127 -17 16 -10 25 135 170 83 84 152 159 152 167 0 8 -69 -55 -154 -139
-134 -133 -157 -153 -170 -142 -9 8 -16 19 -16 25 0 6 72 83 160 171 88 88
160 164 160 170 0 5 -76 -66 -168 -158 l-169 -169 -16 25 c-15 24 -14 25 158
197 96 96 171 178 168 183 -3 5 -84 -69 -179 -164 -165 -165 -175 -173 -191
-156 -17 16 -8 26 165 200 100 100 182 189 182 197 0 8 -85 -70 -188 -173
-179 -179 -189 -187 -205 -170 -16 18 -7 28 173 208 105 105 190 197 190 205
0 8 -88 -73 -195 -180 -185 -185 -196 -194 -212 -177 -17 16 -7 27 185 220
112 112 199 206 195 210 -4 4 -98 -83 -209 -194 -175 -175 -205 -201 -218
-190 -9 8 -16 19 -16 25 0 6 92 103 205 216 113 113 205 209 205 215 0 5 -96
-86 -213 -203 l-213 -213 -19 21 c-19 21 -18 22 200 240 121 121 216 223 212
227 -4 4 -107 -92 -227 -212 -209 -209 -221 -219 -237 -202 -17 16 -6 29 210
245 125 125 224 231 220 235 -17 18 201 -92 291 -146z m-1568 128 c18 -13 18
-14 -4 -8 -12 3 -25 9 -28 14 -8 14 10 11 32 -6z m83 -41 c14 -12 -19 -1 -35
12 -18 14 -18 14 6 3 14 -6 27 -13 29 -15z m51 -24 c8 -5 11 -10 5 -10 -5 0
-17 5 -25 10 -8 5 -10 10 -5 10 6 0 17 -5 25 -10z m-2564 -27 c-8 -16 -274
-287 -591 -603 -557 -556 -576 -573 -545 -510 28 58 87 121 538 574 447 448
573 566 604 566 5 0 2 -12 -6 -27z m2639 -21 c-3 -3 -11 0 -18 7 -9 10 -8 11
6 5 10 -3 15 -9 12 -12z m65 -38 c0 -2 -9 0 -20 6 -11 6 -20 13 -20 16 0 2 9
0 20 -6 11 -6 20 -13 20 -16z m-2870 -17 c0 -1 -196 -198 -437 -437 -240 -239
-428 -421 -418 -405 62 103 137 189 374 428 200 202 292 287 370 343 96 69
111 78 111 71z m2926 -12 c10 -8 15 -14 9 -14 -5 0 -19 6 -29 14 -11 8 -15 15
-10 15 6 0 19 -7 30 -15z m-2817 -47 c-18 -47 -83 -116 -602 -635 -319 -320
-583 -581 -584 -579 -2 2 6 25 18 52 17 40 123 151 602 632 320 320 583 582
584 582 2 0 -6 -24 -18 -52z m2887 -6 c-4 -3 -14 2 -24 12 -16 18 -16 18 6 6
13 -6 21 -14 18 -18z m45 -29 c13 -16 12 -17 -3 -4 -10 7 -18 15 -18 17 0 8 8
3 21 -13z m2289 -70 c36 -101 90 -289 89 -312 0 -9 -15 38 -34 104 -18 66 -47
158 -64 204 -33 90 -33 91 -27 91 2 0 18 -39 36 -87z m-2220 21 c0 -2 -9 0
-20 6 -11 6 -20 13 -20 16 0 2 9 0 20 -6 11 -6 20 -13 20 -16z m-3052 -61 c-6
-21 -16 -49 -23 -63 -17 -32 -1175 -1189 -1175 -1174 0 6 7 31 15 55 13 37
109 137 603 632 323 323 588 587 589 587 1 0 -3 -17 -9 -37z m3103 20 c13 -17
13 -17 -6 -3 -11 8 -22 16 -24 17 -2 2 0 3 6 3 6 0 17 -8 24 -17z m54 -43 c10
-11 16 -20 13 -20 -3 0 -13 9 -23 20 -10 11 -16 20 -13 20 3 0 13 -9 23 -20z
m55 -45 c7 -8 8 -15 2 -15 -5 0 -15 7 -22 15 -7 8 -8 15 -2 15 5 0 15 -7 22
-15z m51 -52 c13 -16 12 -17 -3 -4 -17 13 -22 21 -14 21 2 0 10 -8 17 -17z
m-3311 -45 c-11 -41 -62 -95 -606 -639 -600 -598 -606 -605 -572 -509 8 23
1178 1203 1186 1196 1 -2 -2 -24 -8 -48z m3361 -5 c13 -16 12 -17 -3 -4 -17
13 -22 21 -14 21 2 0 10 -8 17 -17z m54 -53 c10 -11 16 -20 13 -20 -3 0 -13 9
-23 20 -10 11 -16 20 -13 20 3 0 13 -9 23 -20z m-3446 -72 c-9 -39 -61 -94
-594 -628 -322 -322 -585 -592 -585 -600 0 -8 261 246 581 565 552 551 581
578 574 540 -6 -37 -53 -87 -571 -605 -310 -311 -564 -572 -564 -580 0 -8 252
237 560 545 539 538 560 559 560 525 0 -32 -34 -69 -550 -585 -302 -303 -550
-557 -550 -565 0 -8 246 230 546 530 l546 545 -6 -45 c-7 -44 -22 -61 -539
-577 -292 -293 -527 -533 -522 -533 5 0 245 235 532 522 l523 523 0 -40 c0
-39 -8 -47 -517 -557 -284 -284 -514 -521 -510 -525 4 -4 237 222 517 502 491
491 510 509 510 475 0 -32 -32 -67 -500 -535 -275 -275 -500 -507 -500 -515 0
-8 225 210 500 485 483 483 500 499 500 465 0 -33 -30 -65 -485 -520 -267
-267 -485 -492 -485 -500 0 -8 218 203 485 470 468 468 485 484 485 450 0 -33
-30 -64 -472 -507 -260 -260 -469 -476 -465 -480 4 -4 216 201 470 455 254
254 465 462 470 462 4 0 7 -15 7 -33 0 -29 -41 -73 -455 -487 -250 -250 -455
-459 -455 -465 0 -5 204 194 453 443 248 248 455 452 460 452 4 0 7 -15 7 -32
0 -30 -41 -74 -447 -480 -246 -246 -444 -451 -440 -455 4 -4 207 192 451 436
423 423 444 442 449 415 5 -27 -23 -57 -429 -464 -239 -239 -434 -442 -434
-450 0 -8 195 180 433 418 238 238 436 430 440 426 26 -26 -10 -66 -417 -473
-234 -234 -422 -429 -419 -434 3 -5 197 181 430 414 409 407 425 422 419 384
-5 -36 -39 -73 -411 -445 -223 -223 -402 -409 -398 -413 4 -4 184 169 401 385
260 259 392 384 388 368 -3 -14 -6 -34 -6 -45 0 -12 -136 -155 -370 -390 -204
-204 -370 -375 -370 -380 0 -5 165 154 366 355 l366 365 -5 -44 c-5 -43 -18
-56 -348 -387 -189 -189 -340 -347 -336 -351 4 -4 159 143 344 327 324 324
335 334 329 295 -5 -36 -34 -68 -323 -357 -174 -174 -314 -321 -310 -325 4 -4
147 132 317 302 302 302 310 309 310 275 0 -33 -21 -56 -294 -329 -162 -162
-292 -299 -289 -304 3 -5 136 121 294 279 282 281 289 288 289 254 0 -32 -20
-55 -272 -307 -150 -150 -269 -276 -265 -280 4 -4 123 109 265 250 141 141
260 257 265 257 4 0 7 -15 7 -33 0 -29 -25 -57 -245 -277 -134 -134 -242 -246
-239 -249 3 -3 113 103 244 234 l240 240 0 -40 c0 -39 -7 -47 -222 -262 -122
-122 -219 -226 -215 -230 4 -4 107 92 227 212 216 216 220 219 220 185 0 -32
-17 -52 -202 -237 -111 -111 -199 -206 -195 -210 4 -4 98 83 207 192 197 197
200 199 200 165 0 -32 -16 -51 -182 -217 -100 -100 -179 -186 -175 -190 4 -4
88 73 186 171 173 173 178 177 185 150 7 -25 -5 -40 -159 -194 -92 -92 -163
-170 -158 -173 5 -3 79 64 164 149 84 84 157 154 161 154 5 0 8 -15 8 -32 0
-29 -18 -51 -142 -175 -79 -79 -138 -143 -133 -143 6 0 71 61 145 135 132 133
149 143 150 90 0 -12 -49 -69 -127 -147 -70 -71 -121 -128 -113 -128 9 0 67
52 129 114 63 63 118 113 123 110 26 -17 2 -55 -96 -153 -58 -58 -102 -109
-99 -114 3 -5 52 37 109 94 57 57 105 101 108 98 2 -2 6 -14 8 -26 2 -17 -19
-44 -86 -112 -50 -50 -87 -94 -83 -98 4 -4 46 31 93 78 68 68 86 81 94 69 16
-25 12 -32 -62 -107 -40 -40 -69 -76 -65 -80 4 -4 39 24 77 62 l69 69 11 -29
c10 -27 8 -32 -47 -87 -31 -32 -53 -58 -48 -58 5 0 30 21 56 46 26 26 52 43
58 40 21 -14 10 -51 -26 -88 -45 -46 -23 -52 23 -7 l33 32 7 -27 c4 -19 1 -33
-11 -46 -23 -26 -11 -39 14 -16 18 17 20 16 27 -6 4 -13 8 -25 9 -28 3 -14 75
-147 127 -234 353 -588 852 -1005 1487 -1242 64 -23 111 -43 105 -43 -6 -1
-27 -4 -45 -7 -23 -4 -30 -3 -21 4 10 6 -22 23 -110 57 -281 110 -574 281
-800 467 -134 111 -342 326 -442 456 -43 57 -117 165 -165 240 l-88 137 -139
80 c-274 158 -424 273 -640 489 -278 279 -477 577 -622 932 -61 150 -81 187
-82 159 -1 -11 -4 -15 -6 -8 -3 6 9 86 25 177 17 91 31 169 31 173 0 6 1190
1203 1196 1203 1 0 -2 -19 -7 -42z m578 -10 c-24 -29 -76 -96 -115 -148 -38
-53 -149 -173 -246 -270 -174 -173 -176 -174 -176 -140 0 32 21 56 287 322
159 159 289 288 291 288 2 0 -16 -24 -41 -52z m1538 22 c315 -66 589 -209 812
-423 302 -292 446 -639 430 -1037 -15 -354 -135 -651 -351 -866 -131 -130
-261 -207 -441 -260 -71 -21 -119 -27 -231 -31 -237 -9 -341 25 -619 202 -238
151 -316 187 -416 193 -74 4 -84 2 -144 -27 -47 -23 -83 -52 -133 -107 -65
-70 -71 -75 -91 -62 -12 7 -21 18 -21 24 0 20 103 159 165 220 74 75 165 135
248 164 87 31 240 38 326 15 53 -13 66 -14 73 -3 155 244 155 284 4 587 -47
93 -95 197 -106 231 -49 145 -42 285 19 414 51 106 97 166 243 313 67 68 119
125 117 128 -11 11 -150 25 -249 25 -368 0 -697 -126 -786 -303 -34 -66 -41
-140 -20 -192 16 -37 16 -40 0 -52 -10 -7 -21 -13 -25 -13 -4 0 -22 29 -39 64
-59 119 -52 269 18 408 42 85 146 195 234 246 129 76 317 139 483 161 112 16
384 5 500 -19z m1376 13 c13 -16 12 -17 -3 -4 -10 7 -18 15 -18 17 0 8 8 3 21
-13z m1990 -220 c11 -77 19 -156 16 -175 -4 -32 -4 -31 -5 7 -2 33 -22 184
-46 335 -6 35 -6 35 4 5 5 -16 19 -94 31 -172z m-1940 165 c11 -21 11 -22 -4
-9 -10 7 -17 17 -17 22 0 15 9 10 21 -13z m50 -60 c11 -21 11 -22 -4 -9 -10 7
-17 17 -17 22 0 15 9 10 21 -13z m40 -50 c11 -21 11 -22 -4 -9 -10 7 -17 17
-17 22 0 15 9 10 21 -13z m49 -63 c7 -9 8 -15 2 -15 -5 0 -12 7 -16 15 -3 8
-4 15 -2 15 2 0 9 -7 16 -15z m40 -60 c14 -19 14 -19 -2 -6 -10 7 -18 18 -18
24 0 6 1 8 3 6 1 -2 9 -13 17 -24z m50 -79 c0 -5 -7 -1 -15 10 -8 10 -14 24
-14 29 0 6 6 1 14 -9 8 -11 15 -24 15 -30z m-3453 -48 c-22 -43 -70 -101 -154
-188 l-123 -125 0 35 c0 32 14 49 152 187 84 84 154 153 155 153 1 0 -12 -28
-30 -62z m3492 -13 c0 -5 -6 -1 -14 9 -8 11 -15 24 -15 30 0 5 7 1 15 -10 8
-10 14 -23 14 -29z m1698 -272 c-1 -49 -3 -9 -3 87 0 96 2 136 3 88 2 -49 2
-127 0 -175z m-1666 225 c11 -21 11 -22 -4 -9 -10 7 -17 17 -17 22 0 15 9 10
21 -13z m39 -76 c0 -15 -2 -15 -10 -2 -13 20 -13 33 0 25 6 -3 10 -14 10 -23z
m-3678 -84 c-28 -63 -136 -193 -153 -182 -5 3 -9 17 -9 32 0 20 22 49 92 119
51 51 93 93 94 93 1 0 -10 -28 -24 -62z m3718 8 c0 -12 -5 -7 -19 24 -11 24
-11 24 3 6 9 -11 16 -24 16 -30z m30 -59 c0 -5 -4 -5 -10 -2 -5 3 -10 14 -10
23 0 15 2 15 10 2 5 -8 10 -19 10 -23z m30 -72 c0 -5 -5 -3 -10 5 -5 8 -10 20
-10 25 0 6 5 3 10 -5 5 -8 10 -19 10 -25z m-3859 -65 c-20 -52 -46 -90 -63
-90 -4 0 -8 14 -8 32 0 24 10 43 42 75 23 23 43 41 45 39 2 -2 -5 -27 -16 -56z
m3889 -5 c0 -5 -5 -3 -10 5 -5 8 -10 20 -10 25 0 6 5 3 10 -5 5 -8 10 -19 10
-25z m1487 -52 c-2 -16 -4 -3 -4 27 0 30 2 43 4 28 2 -16 2 -40 0 -55z m-1458
-28 c0 -5 -4 -3 -9 5 -5 8 -9 22 -9 30 0 16 17 -16 18 -35z m1448 -57 c-2 -13
-4 -5 -4 17 -1 22 1 32 4 23 2 -10 2 -28 0 -40z m-5416 1 c-9 -22 -10 -22 -10
-3 -1 11 2 24 6 27 12 12 14 0 4 -24z m3998 -24 c0 -5 -4 -3 -9 5 -5 8 -9 22
-9 30 0 16 17 -16 18 -35z m20 -65 c0 -10 -3 -8 -9 5 -12 27 -12 43 0 25 5 -8
9 -22 9 -30z m18 -72 c-3 -8 -6 -5 -6 6 -1 11 2 17 5 13 3 -3 4 -12 1 -19z
m20 -95 c-3 -10 -5 -4 -5 12 0 17 2 24 5 18 2 -7 2 -21 0 -30z m-4010 -35 c-3
-8 -6 -5 -6 6 -1 11 2 17 5 13 3 -3 4 -12 1 -19z m4048 -139 c14 -74 24 -145
24 -159 l-1 -25 -7 24 c-5 21 -17 0 -64 -115 -203 -495 -518 -907 -932 -1219
-189 -142 -467 -298 -680 -380 -55 -21 -105 -43 -112 -47 -13 -10 -243 32
-243 44 0 4 17 10 38 14 20 4 56 15 78 25 23 10 63 23 88 29 26 6 57 17 69 24
12 8 45 21 72 29 28 8 87 33 132 56 45 23 86 41 91 41 4 0 30 14 58 31 27 18
91 56 142 86 133 76 355 258 507 414 128 131 311 355 339 414 8 17 44 77 80
135 36 58 66 112 66 120 0 8 19 49 41 90 23 41 43 86 46 99 2 13 15 48 29 77
13 29 31 78 40 110 8 32 19 63 25 70 5 7 14 40 20 75 10 63 17 84 25 76 3 -3
16 -65 29 -138z m-4027 65 c-3 -14 -5 -12 -10 9 -3 19 -2 25 4 19 6 -6 8 -18
6 -28z m31 -87 c1 -5 -3 -5 -9 -2 -5 3 -10 16 -9 28 0 21 1 21 9 2 5 -11 9
-24 9 -28z m20 -77 c0 -9 -4 -8 -9 5 -5 11 -9 27 -9 35 0 9 4 8 9 -5 5 -11 9
-27 9 -35z m-119 -24 c-7 -7 -10 1 -9 25 0 32 1 33 10 10 6 -16 6 -28 -1 -35z
m5428 -76 c-1 -41 -1 -40 -11 20 l-10 65 -22 -67 c-27 -79 -106 -260 -111
-255 -2 2 16 48 40 103 24 54 56 137 72 184 l28 85 7 -45 c4 -25 7 -65 7 -90z
m-5398 19 c0 -8 -11 -26 -25 -39 l-25 -23 0 33 c0 39 29 78 42 58 4 -7 8 -20
8 -29z m120 8 c0 -5 -4 -5 -10 -2 -5 3 -10 14 -10 23 0 15 2 15 10 2 5 -8 10
-19 10 -23z m-1467 -339 c2 -158 2 -287 1 -285 -11 12 -24 355 -18 470 11 183
12 162 17 -185z m1496 257 c0 -5 -6 1 -14 15 -8 14 -14 30 -14 35 0 6 6 -1 14
-15 8 -14 14 -29 14 -35z m3948 -47 c-2 -18 -4 -4 -4 32 0 36 2 50 4 33 2 -18
2 -48 0 -65z m-4072 61 c6 -17 -3 -32 -39 -68 l-46 -46 0 35 c0 25 9 43 32 67
37 39 44 40 53 12z m5382 -241 c-6 -254 -28 -425 -82 -632 -198 -770 -719
-1416 -1432 -1774 -114 -58 -342 -145 -470 -181 -243 -69 -481 -101 -742 -101
-179 0 -408 17 -394 30 4 4 53 24 108 45 55 21 163 69 240 107 77 38 136 65
130 59 -21 -21 -264 -139 -353 -171 -51 -18 -91 -34 -89 -36 2 -2 56 -8 122
-14 134 -13 467 0 659 25 402 53 908 271 1231 530 118 95 300 270 416 403 170
194 302 403 411 652 160 367 217 634 234 1098 4 100 9 182 12 182 3 0 2 -100
-1 -222z m-5227 159 c0 -16 -18 3 -23 25 -6 22 -5 22 8 4 8 -11 15 -24 15 -29z
m-125 6 c5 -23 -2 -34 -54 -87 l-61 -61 0 40 c0 33 7 46 47 87 26 26 50 48 54
48 4 0 10 -12 14 -27z m155 -77 c0 -12 -5 -7 -19 24 -11 24 -11 24 3 6 9 -11
16 -24 16 -30z m-125 7 c5 -23 -3 -35 -69 -102 l-76 -76 0 40 c0 35 7 46 62
102 34 35 65 63 69 63 4 0 10 -12 14 -27z m4022 -100 c-2 -21 -4 -4 -4 37 0
41 2 58 4 38 2 -21 2 -55 0 -75z m-3867 32 c0 -5 -5 -3 -10 5 -5 8 -10 20 -10
25 0 6 5 3 10 -5 5 -8 10 -19 10 -25z m-198 -107 c-83 -85 -101 -93 -102 -48
0 8 37 52 82 97 80 81 83 82 95 60 11 -20 5 -29 -75 -109z m227 52 c11 -24 11
-24 -3 -6 -9 11 -16 24 -16 30 0 12 5 7 19 -24z m-118 -11 c10 -20 2 -31 -87
-120 -54 -55 -102 -99 -106 -99 -5 0 -8 12 -8 27 0 21 21 49 92 120 51 51 94
93 95 93 1 0 7 -10 14 -21z m5024 -59 c-14 -27 -28 -50 -30 -50 -3 0 6 23 20
50 14 28 28 50 30 50 3 0 -6 -22 -20 -50z m-4865 -3 c0 -5 -4 -5 -10 -2 -5 3
-10 14 -10 23 0 15 2 15 10 2 5 -8 10 -19 10 -23z m-125 -8 c6 -18 -12 -40
-101 -130 -59 -59 -111 -106 -116 -103 -26 16 -2 55 94 151 57 57 106 103 110
103 4 0 10 -10 13 -21z m3912 -71 c-2 -18 -4 -4 -4 32 0 36 2 50 4 33 2 -18 2
-48 0 -65z m-3753 26 c9 -24 2 -26 -12 -4 -7 11 -8 20 -3 20 5 0 12 -7 15 -16z
m-114 -38 c0 -11 -230 -246 -241 -246 -4 0 -10 12 -14 27 -6 24 6 38 112 145
105 105 119 116 131 101 6 -9 12 -22 12 -27z m4900 14 c-6 -11 -13 -20 -16
-20 -2 0 0 9 6 20 6 11 13 20 16 20 2 0 0 -9 -6 -20z m-4742 -56 c-4 -3 -12 5
-18 18 -12 22 -12 22 6 6 10 -10 15 -20 12 -24z m4713 9 c-5 -10 -17 -27 -26
-38 -16 -19 -17 -19 -3 5 26 46 29 50 34 50 3 0 0 -8 -5 -17z m-4837 -16 c9
-14 -11 -39 -124 -152 -132 -133 -149 -143 -150 -90 0 22 238 267 254 262 5
-2 14 -11 20 -20z m3806 -163 c-43 -263 -113 -489 -230 -742 -34 -74 -47 -92
-76 -106 -49 -23 -54 -20 -13 8 43 30 65 64 123 199 54 125 105 278 140 417
28 115 65 320 68 378 1 36 1 36 5 6 2 -18 -5 -89 -17 -160z m-3642 110 c-4 -3
-12 5 -18 18 -12 22 -12 22 6 6 10 -10 15 -20 12 -24z m-118 -18 c0 -16 -285
-298 -293 -290 -23 23 1 57 130 186 105 106 140 135 150 126 7 -6 13 -16 13
-22z m159 -40 c-3 -3 -11 5 -18 17 -13 21 -12 21 5 5 10 -10 16 -20 13 -22z
m-1802 -23 c-3 -10 -5 -4 -5 12 0 17 2 24 5 18 2 -7 2 -21 0 -30z m1683 3 c0
-16 -305 -318 -313 -310 -23 23 2 57 140 196 113 113 150 145 160 136 7 -6 13
-16 13 -22z m4650 -6 c-12 -16 -24 -30 -26 -30 -3 0 4 14 16 30 12 17 24 30
26 30 3 0 -4 -13 -16 -30z m-4489 -22 c11 -21 11 -22 -4 -9 -10 7 -17 17 -17
22 0 15 9 10 21 -13z m-278 -200 c-161 -161 -182 -176 -183 -128 0 8 71 86
157 172 149 150 158 157 176 141 17 -16 10 -25 -150 -185z m-1556 160 c-3 -7
-5 -2 -5 12 0 14 2 19 5 13 2 -7 2 -19 0 -25z m6293 18 c0 -2 -8 -10 -17 -17
-16 -13 -17 -12 -4 4 13 16 21 21 21 13z m-4415 -36 c10 -11 16 -20 13 -20 -3
0 -13 9 -23 20 -10 11 -16 20 -13 20 3 0 13 -9 23 -20z m-1868 -32 c-3 -7 -5
-2 -5 12 0 14 2 19 5 13 2 -7 2 -19 0 -25z m1744 11 c10 -20 -4 -37 -164 -197
l-176 -176 -11 29 c-11 28 -8 32 157 197 92 92 171 168 175 168 4 0 12 -10 19
-21z m4509 17 c0 -2 -8 -10 -17 -17 -16 -13 -17 -12 -4 4 13 16 21 21 21 13z
m-4339 -53 c13 -16 12 -17 -3 -4 -10 7 -18 15 -18 17 0 8 8 3 21 -13z m4309
14 c0 -2 -10 -12 -22 -23 l-23 -19 19 23 c18 21 26 27 26 19z m-6213 -39 c-3
-7 -5 -2 -5 12 0 14 2 19 5 13 2 -7 2 -19 0 -25z m1780 4 c10 -17 -11 -41
-173 -203 -147 -147 -186 -181 -194 -169 -5 8 -10 22 -10 30 0 16 339 360 355
360 6 0 15 -8 22 -18z m174 -34 c11 -21 11 -22 -4 -9 -10 7 -17 17 -17 22 0
15 9 10 21 -13z m4219 19 c0 -2 -15 -16 -32 -33 l-33 -29 29 33 c28 30 36 37
36 29z m-6141 -112 c-2 -17 -27 69 -27 90 0 11 6 -2 14 -30 7 -27 13 -54 13
-60z m1801 55 c0 -3 -87 -93 -194 -199 -189 -189 -195 -194 -202 -167 -6 26 7
42 182 217 168 168 190 187 202 172 6 -9 12 -19 12 -23z m165 -10 c10 -11 16
-20 13 -20 -3 0 -13 9 -23 20 -10 11 -16 20 -13 20 3 0 13 -9 23 -20z m4115
-3 c0 -1 -60 -61 -132 -132 l-133 -130 130 133 c120 123 135 137 135 129z
m-4239 -23 c11 -13 -15 -43 -194 -222 -200 -200 -206 -205 -213 -178 -6 26 7
42 187 222 107 107 197 194 200 194 4 0 12 -7 20 -16z m174 -24 c10 -11 16
-20 13 -20 -3 0 -13 9 -23 20 -10 11 -16 20 -13 20 3 0 13 -9 23 -20z m-2008
-32 c-3 -8 -6 -5 -6 6 -1 11 2 17 5 13 3 -3 4 -12 1 -19z m1882 4 c8 -16 -22
-50 -198 -226 -122 -122 -213 -206 -220 -202 -6 4 -11 15 -11 24 0 16 397 422
412 422 4 0 12 -8 17 -18z m182 -29 c13 -16 12 -17 -3 -4 -10 7 -18 15 -18 17
0 8 8 3 21 -13z m-2033 -73 c0 -8 -6 1 -13 20 -7 19 -13 42 -13 50 0 8 6 -1
13 -20 7 -19 13 -42 13 -50z m1695 -192 l-222 -222 -12 28 c-13 27 -10 30 201
241 l215 215 20 -20 20 -20 -222 -222z m397 210 c0 -6 -6 -5 -15 2 -8 7 -15
14 -15 16 0 2 7 1 15 -2 8 -4 15 -11 15 -16z m-130 -33 c0 -5 -98 -108 -217
-227 -120 -120 -211 -218 -203 -218 8 0 112 97 230 215 204 204 215 214 233
198 17 -16 8 -27 -195 -230 -117 -117 -206 -213 -198 -213 8 0 107 92 220 205
194 193 207 205 225 191 19 -14 10 -25 -180 -215 -109 -110 -196 -204 -192
-208 4 -4 97 82 206 191 186 186 200 197 221 186 22 -12 15 -20 -169 -204
-105 -106 -188 -195 -184 -199 4 -4 93 78 198 183 189 189 191 190 214 174
l23 -17 -183 -183 c-101 -101 -179 -184 -174 -184 6 0 89 79 185 175 96 96
180 175 186 175 6 0 17 -7 25 -16 11 -13 -11 -38 -157 -185 -93 -93 -162 -169
-154 -169 8 0 89 74 180 165 156 155 167 165 185 151 19 -14 12 -23 -140 -175
-88 -89 -153 -161 -145 -161 8 0 85 70 170 155 146 146 157 155 175 141 19
-14 13 -22 -130 -165 -82 -83 -143 -151 -135 -151 8 0 80 65 160 145 137 136
147 144 165 131 19 -14 14 -21 -115 -150 -74 -75 -128 -136 -120 -136 9 0 74
59 145 130 71 72 132 130 135 130 4 0 15 -7 26 -14 18 -14 12 -22 -106 -140
-69 -70 -120 -126 -115 -126 5 0 65 55 132 122 119 119 123 121 149 109 l27
-12 -108 -109 c-60 -60 -106 -113 -102 -117 4 -4 56 41 115 100 59 59 112 107
117 107 6 0 17 -5 25 -10 12 -8 -3 -28 -80 -105 -52 -52 -88 -95 -80 -95 8 0
56 41 106 91 85 84 93 90 114 79 22 -12 20 -14 -61 -96 -46 -46 -77 -84 -69
-84 8 0 51 36 96 81 75 75 83 80 104 69 22 -12 21 -14 -46 -81 -38 -38 -62
-69 -53 -69 8 0 43 29 78 64 45 46 68 62 82 59 35 -9 32 -24 -12 -69 -24 -24
-39 -44 -34 -44 5 0 30 20 56 46 43 42 47 44 73 33 l27 -12 -33 -34 c-40 -41
-21 -44 25 -3 24 21 40 27 56 23 14 -4 20 -11 16 -20 -4 -12 0 -14 19 -9 15 4
54 -4 98 -18 82 -28 271 -67 446 -93 146 -21 559 -24 702 -5 177 24 394 73
544 123 82 27 151 49 153 49 2 0 -32 -53 -76 -118 -320 -471 -799 -844 -1331
-1035 -69 -24 -155 -52 -191 -62 -76 -20 -74 -20 -309 57 -611 199 -1165 651
-1484 1208 l-66 115 222 222 c195 195 223 220 240 210 10 -7 18 -16 18 -22z
m175 -5 c10 -11 16 -20 13 -20 -3 0 -13 9 -23 20 -10 11 -16 20 -13 20 3 0 13
-9 23 -20z m56 -47 c13 -16 12 -17 -3 -4 -10 7 -18 15 -18 17 0 8 8 3 21 -13z
m-2147 -63 c5 -17 4 -20 -2 -10 -5 8 -13 26 -16 40 -5 17 -4 20 2 10 5 -8 13
-26 16 -40z m5726 47 c0 -2 -15 -16 -32 -33 l-33 -29 29 33 c28 30 36 37 36
29z m-3510 -39 c0 -12 -6 -9 -26 13 -19 22 -19 22 4 8 12 -8 22 -17 22 -21z
m51 -35 c13 -15 12 -15 -8 -4 -24 12 -29 21 -14 21 5 0 15 -7 22 -17z m3389
14 c0 -2 -10 -12 -22 -23 l-23 -19 19 23 c18 21 26 27 26 19z m-5630 -52 c0
-5 -5 -3 -10 5 -5 8 -10 20 -10 25 0 6 5 3 10 -5 5 -8 10 -19 10 -25z m2306
-13 c-4 -3 -14 2 -24 12 -16 18 -16 18 6 6 13 -6 21 -14 18 -18z m3269 18 c-3
-5 -20 -19 -38 -30 -32 -22 -32 -22 3 9 37 32 45 37 35 21z m-5546 -75 c0 -5
-6 1 -14 15 -8 14 -14 30 -14 35 0 6 6 -1 14 -15 8 -14 14 -29 14 -35z m2337
17 c-4 -3 -14 2 -24 12 -16 18 -16 18 6 6 13 -6 21 -14 18 -18z m3134 4 c0 -2
-8 -10 -17 -17 -16 -13 -17 -12 -4 4 13 16 21 21 21 13z m-3061 -42 c14 -12
-19 -1 -35 12 -18 14 -18 14 6 3 14 -6 27 -13 29 -15z m-2203 -357 c116 -177
214 -297 369 -452 349 -349 731 -572 1210 -705 77 -21 133 -39 124 -39 -8 -1
-71 14 -140 33 -744 204 -1371 722 -1724 1426 -25 49 -45 93 -45 97 0 5 32
-52 70 -125 38 -74 100 -179 136 -235z m2264 317 c0 -2 -9 0 -20 6 -11 6 -20
13 -20 16 0 2 9 0 20 -6 11 -6 20 -13 20 -16z m2870 -9 c0 -2 -10 -9 -22 -15
-22 -11 -22 -10 -4 4 21 17 26 19 26 11z m-2820 -15 c8 -5 11 -10 5 -10 -5 0
-17 5 -25 10 -8 5 -10 10 -5 10 6 0 17 -5 25 -10z m89 -46 c14 -12 -19 -1 -35
12 -18 14 -18 14 6 3 14 -6 27 -13 29 -15z m2631 1 c0 -2 -10 -9 -22 -15 -22
-11 -22 -10 -4 4 21 17 26 19 26 11z m-2580 -25 c8 -5 11 -10 5 -10 -5 0 -17
5 -25 10 -8 5 -10 10 -5 10 6 0 17 -5 25 -10z m2510 -15 c0 -2 -18 -14 -40
-25 -22 -11 -40 -18 -40 -15 0 2 17 13 38 24 42 23 42 23 42 16z m-2440 -15
c8 -5 11 -10 5 -10 -5 0 -17 5 -25 10 -8 5 -10 10 -5 10 6 0 17 -5 25 -10z
m75 -30 c13 -6 15 -9 5 -9 -8 0 -22 4 -30 9 -18 12 -2 12 25 0z m2025 0 c-8
-5 -19 -10 -25 -10 -5 0 -3 5 5 10 8 5 20 10 25 10 6 0 3 -5 -5 -10z m245 -8
c-6 -4 -26 -20 -45 -34 -19 -14 -62 -68 -95 -123 -134 -218 -332 -459 -496
-605 -64 -57 -54 -45 46 55 186 186 323 359 448 569 47 77 75 113 99 126 36
19 59 26 43 12z m-285 -7 c0 -2 -62 -24 -138 -49 -149 -48 -334 -92 -422 -100
-35 -4 -20 1 41 13 143 28 293 67 404 105 105 36 115 39 115 31z m-1910 -15
c18 -12 2 -12 -25 0 -13 6 -15 9 -5 9 8 0 22 -4 30 -9z m618 -147 c-10 -2 -28
-2 -40 0 -13 2 -5 4 17 4 22 1 32 -1 23 -4z m660 0 c-10 -2 -28 -2 -40 0 -13
2 -5 4 17 4 22 1 32 -1 23 -4z m-560 -10 c-16 -2 -40 -2 -55 0 -16 2 -3 4 27
4 30 0 43 -2 28 -4z m412 -3 c-41 -4 -140 -7 -220 -7 l-145 1 145 6 c80 3 179
6 220 6 l75 1 -75 -7z m330 -664 c0 -2 -8 -10 -17 -17 -16 -13 -17 -12 -4 4
13 16 21 21 21 13z m-390 -281 c0 -2 -10 -9 -22 -15 -22 -11 -22 -10 -4 4 21
17 26 19 26 11z m-1955 -235 c27 -7 27 -8 5 -8 -14 0 -36 4 -50 8 -20 6 -21 8
-5 8 11 0 34 -4 50 -8z m68 -17 c-7 -2 -19 -2 -25 0 -7 3 -2 5 12 5 14 0 19
-2 13 -5z m60 -10 c-7 -2 -19 -2 -25 0 -7 3 -2 5 12 5 14 0 19 -2 13 -5z m80
-10 c-7 -2 -21 -2 -30 0 -10 3 -4 5 12 5 17 0 24 -2 18 -5z m636 3 c-12 -12
-339 -25 -459 -19 l-135 8 205 5 c359 10 393 10 389 6z"/>
<path d="M3388 4281 c-117 -123 -153 -194 -153 -307 0 -90 -9 -68 168 -409 72
-138 101 -244 93 -337 -11 -129 -66 -230 -240 -442 -54 -65 -94 -121 -89 -125
4 -4 91 -60 194 -124 284 -179 395 -222 564 -221 192 2 331 59 465 194 99 98
162 207 204 354 133 458 -39 959 -427 1244 -175 129 -444 239 -631 258 l-62 6
-86 -91z"/>
<path d="M1431 5536 c-717 -717 -1302 -1309 -1300 -1315 2 -6 596 581 1319
1304 723 723 1308 1315 1300 1315 -8 0 -602 -587 -1319 -1304z"/>
<path d="M1376 5581 c-687 -687 -1247 -1254 -1245 -1260 2 -6 571 556 1264
1249 693 693 1253 1260 1245 1260 -8 0 -577 -562 -1264 -1249z"/>
<path d="M1326 5631 c-654 -654 -1187 -1194 -1185 -1200 2 -6 544 529 1204
1189 660 660 1193 1200 1185 1200 -8 0 -550 -535 -1204 -1189z"/>
<path d="M1275 5680 c-615 -615 -1117 -1121 -1114 -1124 3 -3 511 501 1129
1119 619 619 1120 1125 1115 1125 -6 0 -514 -504 -1130 -1120z"/>
<path d="M1225 5730 c-577 -577 -1047 -1051 -1044 -1054 3 -3 479 469 1059
1049 580 580 1050 1055 1045 1055 -6 0 -482 -472 -1060 -1050z"/>
<path d="M2135 6740 c-28 -12 -1911 -1901 -1919 -1925 -4 -11 432 419 969 955
536 536 975 976 975 977 0 4 -1 3 -25 -7z"/>
<path d="M1995 6700 c-28 -12 -1731 -1721 -1739 -1745 -4 -11 392 378 879 865
487 487 885 886 885 887 0 4 -1 3 -25 -7z"/>
<path d="M1835 6640 c-28 -12 -1511 -1501 -1519 -1525 -4 -11 342 329 769 755
426 426 775 776 775 777 0 4 -1 3 -25 -7z"/>
<path d="M1037 5953 c-340 -340 -623 -627 -629 -638 -5 -11 276 266 626 615
350 349 636 636 636 637 0 15 -98 -80 -633 -614z"/>
<path d="M992 6008 c-244 -244 -453 -456 -464 -473 -12 -16 191 181 451 440
259 258 471 471 471 472 0 14 -73 -56 -458 -439z"/>
<path d="M995 6106 c-50 -46 -121 -119 -159 -162 -45 -52 -13 -23 92 81 89 88
162 161 162 162 0 7 -10 -2 -95 -81z"/>
</g>
</svg>
