<?xml version="1.0" encoding="UTF-8" standalone="no"?>
<!-- Created with Inkscape (http://www.inkscape.org/) -->

<svg
   width="128"
   height="128"
   viewBox="0 0 128 128"
   version="1.1"
   id="svg1"
   inkscape:version="1.3.2 (091e20ef0f, 2023-11-25, custom)"
   sodipodi:docname="ddc-icon-128.svg"
   xmlns:inkscape="http://www.inkscape.org/namespaces/inkscape"
   xmlns:sodipodi="http://sodipodi.sourceforge.net/DTD/sodipodi-0.dtd"
   xmlns:xlink="http://www.w3.org/1999/xlink"
   xmlns="http://www.w3.org/2000/svg"
   xmlns:svg="http://www.w3.org/2000/svg">
  <sodipodi:namedview
     id="namedview1"
     pagecolor="#ffffff"
     bordercolor="#666666"
     borderopacity="1.0"
     inkscape:showpageshadow="2"
     inkscape:pageopacity="0.0"
     inkscape:pagecheckerboard="0"
     inkscape:deskcolor="#d1d1d1"
     inkscape:document-units="px"
     inkscape:zoom="3.530602"
     inkscape:cx="82.988679"
     inkscape:cy="81.997347"
     inkscape:window-width="1920"
     inkscape:window-height="1003"
     inkscape:window-x="0"
     inkscape:window-y="40"
     inkscape:window-maximized="1"
     inkscape:current-layer="layer1" />
  <defs
     id="defs1">
    <pattern
       inkscape:collect="always"
       xlink:href="#Strips1_1.5"
       preserveAspectRatio="xMidYMid"
       id="pattern15"
       patternTransform="matrix(0.35087607,0.35087607,-0.35087607,0.35087607,0.37787966,-0.15069385)"
       x="0"
       y="0" />
    <pattern
       inkscape:collect="always"
       patternUnits="userSpaceOnUse"
       width="2.5"
       height="1"
       patternTransform="translate(0,0) scale(2,2)"
       preserveAspectRatio="xMidYMid"
       id="Strips1_1.5"
       style="fill:#000000"
       inkscape:stockid="Stripes 02 (2:3)"
       inkscape:isstock="true"
       inkscape:label="Stripes 02 (2:3)">
      <rect
         style="stroke:none"
         x="0"
         y="-0.5"
         width="1"
         height="2"
         id="rect140" />
    </pattern>
    <rect
       x="189.61234"
       y="190.03561"
       width="217.74571"
       height="255.35548"
       id="rect3" />
  </defs>
  <g
     inkscape:label="Layer 1"
     inkscape:groupmode="layer"
     id="layer1">
    <circle
       style="opacity:0.512994;fill:url(#pattern15);fill-opacity:1;stroke:#3c3c3c;stroke-width:1.73675;stroke-dasharray:none;stroke-opacity:1"
       id="path2"
       cx="53.247734"
       cy="54.032845"
       r="47.923172" />
    <path
       style="fill:#3b28b1;fill-opacity:1;stroke:#000000;stroke-width:0;stroke-dasharray:none"
       d="M 62.087322,98.966608 C 46.25864,94.096456 34.365182,81.718451 30.136493,65.714088 l -0.590698,-2.235623 0.494842,-1.745633 C 34.291116,46.738658 46.792235,34.204565 61.850572,29.838999 l 1.816357,-0.526582 1.534472,0.401915 c 3.655509,0.957465 8.106983,2.803596 11.398216,4.727101 10.02706,5.860142 17.449628,14.987979 21.114085,25.964848 1.401121,4.197066 1.404072,4.382217 0.131196,8.232766 -4.270095,12.917393 -13.693969,23.218964 -26.117151,28.549572 -1.857504,0.79703 -7.017549,2.563023 -7.295274,2.496761 -0.02213,-0.005 -1.077436,-0.328725 -2.345151,-0.718772 z"
       id="path13" />
    <circle
       style="fill:none;stroke:#000000;stroke-width:1.73675;stroke-dasharray:none"
       id="path2-6"
       cx="75.57341"
       cy="53.996552"
       r="47.923172" />
    <circle
       style="fill:none;stroke:#000000;stroke-width:1.73675;stroke-dasharray:none"
       id="path2-61"
       cx="75.583534"
       cy="74.87886"
       r="47.923172" />
    <circle
       style="fill:none;stroke:#000000;stroke-width:1.73675;stroke-dasharray:none"
       id="path2-2"
       cx="53.14159"
       cy="75.096519"
       r="47.923172" />
    <path
       style="fill:#3b28b1;fill-opacity:1;stroke:#000000;stroke-width:0;stroke-dasharray:none"
       d="m 71.612787,100.77689 c -0.344181,-0.0406 -1.142053,-0.13091 -1.773051,-0.20072 l -1.147267,-0.12693 1.668752,-0.605484 c 2.522799,-0.915346 7.242014,-3.325703 9.699629,-4.954105 5.618662,-3.722913 10.163046,-8.242335 13.87633,-13.800125 1.806215,-2.703414 4.121948,-7.198163 5.020216,-9.74403 0.333857,-0.946197 0.663493,-1.720601 0.732533,-1.7209 0.1764,-7.06e-4 0.393231,3.044328 0.394711,5.543125 0.004,6.44895 -1.619613,13.799027 -4.31227,19.523546 -1.14622,2.436829 -1.076423,2.386984 -5.334978,3.80976 -3.154362,1.053855 -6.927577,1.870553 -10.137899,2.194303 -2.004008,0.2021 -7.246887,0.25132 -8.686706,0.0816 z"
       id="path6" />
    <path
       style="fill:#3b28b1;fill-opacity:1;stroke:#000000;stroke-width:0;stroke-dasharray:none"
       d="M 48.458834,121.84799 C 44.372505,121.41363 39.258628,120.11755 35.366719,118.52988 21.738783,112.97046 11.256014,100.94765 7.6688232,86.762824 6.5682081,82.410672 6.3226583,80.232992 6.3243191,74.838908 c 7.128e-4,-2.69608 0.078243,-5.089697 0.1720324,-5.319153 0.135908,-0.332497 0.3501306,0.04861 1.0553029,1.877349 3.7071106,9.613758 10.1738956,17.702102 18.6813606,23.365756 1.098449,0.73126 2.866166,1.788573 3.928269,2.349576 1.929842,1.019343 1.931816,1.021225 3.036779,2.879716 5.622519,9.456848 14.488142,16.823918 24.929962,20.716068 2.141651,0.7983 2.153047,0.80618 1.355864,0.93749 -0.984586,0.16218 -9.868816,0.32518 -11.025055,0.20228 z"
       id="path8" />
    <path
       style="fill:#3b28b1;fill-opacity:1;stroke:#000000;stroke-width:0;stroke-dasharray:none"
       d="M 121.37613,59.142696 C 117.76769,47.910303 109.09293,37.682043 98.125788,31.728646 96.286264,30.730075 96.259677,30.704143 95.095039,28.771956 91.388613,22.622842 86.098512,17.160801 79.852258,13.033728 77.410903,11.420658 72.701073,9.0547664 70.152626,8.1613029 L 68.483875,7.5762574 69.526843,7.3922216 c 0.573635,-0.1012236 3.201921,-0.1952765 5.840642,-0.2090049 5.39394,-0.028084 7.424192,0.2115353 12.117301,1.4300748 14.392724,3.7369835 26.233834,14.2543295 31.781744,28.2287685 2.49624,6.287689 3.62002,13.608341 3.12706,20.370641 -0.12545,1.720901 -0.29635,3.199539 -0.37978,3.285856 -0.0834,0.08632 -0.37038,-0.523816 -0.63768,-1.355861 z"
       id="path9" />
    <text
       xml:space="preserve"
       id="text3"
       style="font-style:normal;font-weight:normal;font-size:200px;line-height:1.25;font-family:sans-serif;letter-spacing:0px;word-spacing:0px;white-space:pre;shape-inside:url(#rect3);shape-padding:3.75066;display:inline;fill:#000000;fill-opacity:1;stroke:none"
       transform="matrix(0.33716425,0,0,0.33716425,-27.34063,-37.95497)"><tspan
         x="193.36328"
         y="375.76019"
         id="tspan4"><tspan
           style="fill:#ffd01d"
           id="tspan3">𝔇</tspan></tspan></text>
    <path
       style="fill:#3b28b1;stroke:#999999;stroke-width:0"
       d="m 70.619172,121.49359 -1.300321,-0.22855 1.300321,-0.44367 c 5.939916,-2.02666 14.124572,-7.65456 18.951493,-13.03134 1.900332,-2.11681 5.086812,-6.50163 5.941999,-8.176606 0.47968,-0.939503 1.199258,-1.502851 3.446841,-2.698502 8.480885,-4.511575 15.858315,-12.098306 20.245865,-20.820251 0.89942,-1.787943 1.91031,-4.055379 2.24642,-5.038749 l 0.6111,-1.787944 0.25038,1.61179 c 0.37657,2.424124 -0.0735,10.026399 -0.7915,13.36891 -1.38776,6.46059 -4.06892,12.632072 -7.72186,17.774112 -2.42886,3.41898 -7.65711,8.64723 -11.07608,11.07608 -5.133484,3.64686 -11.280838,6.31968 -17.774125,7.72803 -3.147747,0.68274 -11.917952,1.09075 -14.330533,0.66669 z"
       id="path1" />
  </g>
</svg>
